<?xml version="1.0" encoding="UTF-8" standalone="no"?>
<svg
   viewBox="0 0 64 64"
   width="64"
   height="64"
   version="1.1"
   id="svg12"
   sodipodi:docname="sun-fog.svg"
   xml:space="preserve"
   inkscape:version="1.4.3 (0d15f75042, 2025-12-25)"
   xmlns:inkscape="http://www.inkscape.org/namespaces/inkscape"
   xmlns:sodipodi="http://sodipodi.sourceforge.net/DTD/sodipodi-0.dtd"
   xmlns="http://www.w3.org/2000/svg"
   xmlns:svg="http://www.w3.org/2000/svg"><sodipodi:namedview
     id="namedview12"
     pagecolor="#505050"
     bordercolor="#ffffff"
     borderopacity="1"
     inkscape:showpageshadow="0"
     inkscape:pageopacity="0"
     inkscape:pagecheckerboard="1"
     inkscape:deskcolor="#505050"
     showgrid="false"
     inkscape:zoom="5.7562911"
     inkscape:cx="23.36574"
     inkscape:cy="31.00955"
     inkscape:window-width="1360"
     inkscape:window-height="731"
     inkscape:window-x="0"
     inkscape:window-y="0"
     inkscape:window-maximized="1"
     inkscape:current-layer="svg12" /><defs
     id="defs3"><radialGradient
       id="sunGrad"
       cx="18"
       cy="17"
       r="10"
       fx="18"
       fy="17"
       gradientUnits="userSpaceOnUse"><stop
         offset="0%"
         stop-color="#FFF59B"
         id="stop1" /><stop
         offset="60%"
         stop-color="#FFDD57"
         id="stop2" /><stop
         offset="100%"
         stop-color="#FFB84D"
         id="stop3" /></radialGradient></defs><!-- Sol maior e mais quente --><g
     style="fill:none"
     id="g13"
     transform="matrix(0.77418998,0,0,0.77418998,3.4335109,4.7215302)"><circle
       cx="32"
       cy="32"
       r="12"
       fill="#ffdd57"
       id="circle1" /><g
       stroke="#ffdd57"
       stroke-width="3"
       stroke-linecap="round"
       id="g8"><line
         x1="32"
         y1="4"
         x2="32"
         y2="14"
         id="line1" /><line
         x1="32"
         y1="50"
         x2="32"
         y2="60"
         id="line2" /><line
         x1="4"
         y1="32"
         x2="14"
         y2="32"
         id="line3-3" /><line
         x1="50"
         y1="32"
         x2="60"
         y2="32"
         id="line4-6" /><line
         x1="10"
         y1="10"
         x2="18"
         y2="18"
         id="line5-7" /><line
         x1="46"
         y1="46"
         x2="54"
         y2="54"
         id="line6-5" /><line
         x1="46"
         y1="18"
         x2="54"
         y2="10"
         id="line7-3" /><line
         x1="10"
         y1="54"
         x2="18"
         y2="46"
         id="line8-5" /></g></g><!-- Névoa abaixo do sol --><g
     transform="translate(0,22)"
     id="g12"><path
       d="M12 18h40a6 6 0 0 0 0-12 8 8 0 0 0-15-2 6 6 0 0 0-1 14z"
       fill="#dfe7ea"
       id="path11" /><rect
       x="8"
       y="26"
       width="48"
       height="4"
       rx="2"
       fill="#cfd8dd"
       id="rect11" /><rect
       x="12"
       y="34"
       width="40"
       height="4"
       rx="2"
       fill="#cfd8dd"
       id="rect12" /></g></svg>
